G04 This is an RS-274x file exported by *
G04 gerbv version 2.10.0~037b94 *
G04 More information is available about gerbv at *
G04 https://gerbv.github.io/ *
G04 --End of header info--*
%MOIN*%
%FSLAX36Y36*%
%IPPOS*%
G04 --Define apertures--*
%ADD10C,0.0059*%
%ADD11C,0.0039*%
G04 --Start main section--*
G54D10*
G01X7267717Y0736220D02*
G01X7027559Y0736220D01*
G01X5905512Y0748031D02*
G01X5905512Y0551181D01*
G01X0590551Y0236220D02*
G01X0590551Y2125984D01*
G01X5905512Y1614173D02*
G01X1692913Y1614173D01*
G01X5905512Y0551181D02*
G01X1692913Y0551181D01*
G01X7027559Y1625984D02*
G01X7267717Y1625984D01*
G01X7267717Y1803150D02*
G01X7334646Y1803150D01*
G01X7334646Y1625984D02*
G01X7570866Y1625984D01*
G01X1062992Y2125984D02*
G01X1062992Y0236220D01*
G01X7027559Y0736220D02*
G01X7027559Y1625984D01*
G01X7334646Y0736220D02*
G01X7334646Y0559055D01*
G01X7570866Y0736220D02*
G01X7334646Y0736220D01*
G01X7740157Y0196850D02*
G75*
G03X7740157Y0196850I-062992J0000000D01*
G01X1692913Y1811024D02*
G01X5905512Y1811024D01*
G01X7874016Y2362205D02*
G01X7874016Y0000000D01*
G01X7267717Y0559055D02*
G01X7267717Y0736220D01*
G01X1181102Y0433071D02*
G01X1181102Y0984252D01*
G01X5905512Y1811024D02*
G01X5905512Y1614173D01*
G01X0118110Y0787402D02*
G01X0118110Y1574803D01*
G01X1181102Y0984252D02*
G01X1417323Y0984252D01*
G01X1692913Y0551181D02*
G01X1692913Y0748031D01*
G01X0259843Y2165354D02*
G75*
G03X0259843Y2165354I-062992J0000000D01*
G01X0354331Y1574803D02*
G01X0354331Y0787402D01*
G01X0000000Y0000000D02*
G01X0000000Y2362205D01*
G01X7874016Y0000000D02*
G01X0000000Y0000000D01*
G01X0118110Y1574803D02*
G01X0354331Y1574803D01*
G01X7740157Y2165354D02*
G75*
G03X7740157Y2165354I-062992J0000000D01*
G01X7570866Y1625984D02*
G01X7570866Y0736220D01*
G01X1062992Y0236220D02*
G01X0590551Y0236220D01*
G54D11*
G01X0000000Y2362205D02*
G01X7874016Y2362205D01*
G54D10*
G01X7334646Y0559055D02*
G01X7267717Y0559055D01*
G01X0590551Y2125984D02*
G01X1062992Y2125984D01*
G01X1417323Y0433071D02*
G01X1181102Y0433071D01*
G01X0354331Y0787402D02*
G01X0118110Y0787402D01*
G01X1692913Y1614173D02*
G01X1692913Y1811024D01*
G01X1692913Y0748031D02*
G01X5905512Y0748031D01*
G01X7334646Y1803150D02*
G01X7334646Y1625984D01*
G01X7267717Y1625984D02*
G01X7267717Y1803150D01*
G01X1417323Y0984252D02*
G01X1417323Y0433071D01*
G01X0259843Y0196850D02*
G75*
G03X0259843Y0196850I-062992J0000000D01*
M02*
