  0
SECTION
  2
HEADER
  9
$ANGBASE
  50
0.0
  9
$ANGDIR
  70
1
  9
$MEASUREMENT
  70
0
  0
ENDSEC
  0
SECTION
  2
TABLES
  0
TABLE
  2
LTYPE
  70
4
  0
LTYPE
  5
40F
  2
CONTINUOUS
  70
0
  3
Solid line
  72
65
  73
0
  40
0.0
  0
LTYPE
  5
410
  2
DASHDOT
 70
0
  3
Dash Dot ____ _ ____ _
 72
65
 73
4
 40
2.0
 49
1.25
 49
-0.25
 49
0.25
 49
-0.25
  0
LTYPE
  5
411
  2
DASHED
 70
0
  3
Dashed __ __ __ __ __
 72
65
 73
2
 40
0.75
 49
0.5
 49
-0.25
  0
LTYPE
  5
43B
  2
DOTTED
 70
0
  3
Dotted .  .  .  .
 72
65
 73
2
 40
0.2
 49
0.0
 49
-0.2
  0
ENDTAB
  0
TABLE
  2
STYLE
  70
4
  0
STYLE
  2
KICAD
  70
0
  40
0
  41
1
  42
1
  50
0
  71
0
  3
isocp.shx
  0
STYLE
  2
KICADB
  70
0
  40
0
  41
1
  42
1
  50
0
  71
0
  3
isocp.shx
  0
STYLE
  2
KICADI
  70
0
  40
0
  41
1
  42
1
  50
15
  71
0
  3
isocp.shx
  0
STYLE
  2
KICADBI
  70
0
  40
0
  41
1
  42
1
  50
15
  71
0
  3
isocp.shx
  0
ENDTAB
  0
TABLE
  2
LAYER
  70
1
  0
LAYER
  2
BLACK
  70
0
  62
7
  6
CONTINUOUS
  0
ENDTAB
  0
ENDSEC
  0
SECTION
  2
ENTITIES
0
LINE
8
BLACK
6
CONTINUOUS
10
7.26772
20
0.73622
11
7.02756
21
0.73622
0
LINE
8
BLACK
6
CONTINUOUS
10
5.90551
20
0.748031
11
5.90551
21
0.551181
0
LINE
8
BLACK
6
CONTINUOUS
10
0.590551
20
0.23622
11
0.590551
21
2.12598
0
LINE
8
BLACK
6
CONTINUOUS
10
5.90551
20
1.61417
11
1.69291
21
1.61417
0
LINE
8
BLACK
6
CONTINUOUS
10
5.90551
20
0.551181
11
1.69291
21
0.551181
0
LINE
8
BLACK
6
CONTINUOUS
10
7.02756
20
1.62598
11
7.26772
21
1.62598
0
LINE
8
BLACK
6
CONTINUOUS
10
7.26772
20
1.80315
11
7.33465
21
1.80315
0
LINE
8
BLACK
6
CONTINUOUS
10
7.33465
20
1.62598
11
7.57087
21
1.62598
0
LINE
8
BLACK
6
CONTINUOUS
10
1.06299
20
2.12598
11
1.06299
21
0.23622
0
LINE
8
BLACK
6
CONTINUOUS
10
7.02756
20
0.73622
11
7.02756
21
1.62598
0
LINE
8
BLACK
6
CONTINUOUS
10
7.33465
20
0.73622
11
7.33465
21
0.559055
0
LINE
8
BLACK
6
CONTINUOUS
10
7.57087
20
0.73622
11
7.33465
21
0.73622
0
CIRCLE
8
BLACK
10
7.67717
20
0.19685
40
0.0629921
0
LINE
8
BLACK
6
CONTINUOUS
10
1.69291
20
1.81102
11
5.90551
21
1.81102
0
LINE
8
BLACK
6
CONTINUOUS
10
7.87402
20
2.3622
11
7.87402
21
0
0
LINE
8
BLACK
6
CONTINUOUS
10
7.26772
20
0.559055
11
7.26772
21
0.73622
0
LINE
8
BLACK
6
CONTINUOUS
10
1.1811
20
0.433071
11
1.1811
21
0.984252
0
LINE
8
BLACK
6
CONTINUOUS
10
5.90551
20
1.81102
11
5.90551
21
1.61417
0
LINE
8
BLACK
6
CONTINUOUS
10
0.11811
20
0.787402
11
0.11811
21
1.5748
0
LINE
8
BLACK
6
CONTINUOUS
10
1.1811
20
0.984252
11
1.41732
21
0.984252
0
LINE
8
BLACK
6
CONTINUOUS
10
1.69291
20
0.551181
11
1.69291
21
0.748031
0
CIRCLE
8
BLACK
10
0.19685
20
2.16535
40
0.0629921
0
LINE
8
BLACK
6
CONTINUOUS
10
0.354331
20
1.5748
11
0.354331
21
0.787402
0
LINE
8
BLACK
6
CONTINUOUS
10
0
20
0
11
0
21
2.3622
0
LINE
8
BLACK
6
CONTINUOUS
10
7.87402
20
0
11
0
21
0
0
LINE
8
BLACK
6
CONTINUOUS
10
0.11811
20
1.5748
11
0.354331
21
1.5748
0
CIRCLE
8
BLACK
10
7.67717
20
2.16535
40
0.0629921
0
LINE
8
BLACK
6
CONTINUOUS
10
7.57087
20
1.62598
11
7.57087
21
0.73622
0
LINE
8
BLACK
6
CONTINUOUS
10
1.06299
20
0.23622
11
0.590551
21
0.23622
0
LINE
8
BLACK
6
CONTINUOUS
10
0
20
2.3622
11
7.87402
21
2.3622
0
LINE
8
BLACK
6
CONTINUOUS
10
7.33465
20
0.559055
11
7.26772
21
0.559055
0
LINE
8
BLACK
6
CONTINUOUS
10
0.590551
20
2.12598
11
1.06299
21
2.12598
0
LINE
8
BLACK
6
CONTINUOUS
10
1.41732
20
0.433071
11
1.1811
21
0.433071
0
LINE
8
BLACK
6
CONTINUOUS
10
0.354331
20
0.787402
11
0.11811
21
0.787402
0
LINE
8
BLACK
6
CONTINUOUS
10
1.69291
20
1.61417
11
1.69291
21
1.81102
0
LINE
8
BLACK
6
CONTINUOUS
10
1.69291
20
0.748031
11
5.90551
21
0.748031
0
LINE
8
BLACK
6
CONTINUOUS
10
7.33465
20
1.80315
11
7.33465
21
1.62598
0
LINE
8
BLACK
6
CONTINUOUS
10
7.26772
20
1.62598
11
7.26772
21
1.80315
0
LINE
8
BLACK
6
CONTINUOUS
10
1.41732
20
0.984252
11
1.41732
21
0.433071
0
CIRCLE
8
BLACK
10
0.19685
20
0.19685
40
0.0629921
  0
ENDSEC
  0
EOF
